<?xml version="1.0" standalone="no"?>
<!DOCTYPE svg PUBLIC "-//W3C//DTD SVG 20010904//EN"
 "http://www.w3.org/TR/2001/REC-SVG-20010904/DTD/svg10.dtd">
<svg version="1.0" xmlns="http://www.w3.org/2000/svg"
 width="317.000000pt" height="502.000000pt" viewBox="0 0 317.000000 502.000000"
 preserveAspectRatio="xMidYMid meet">

<g transform="translate(0.000000,502.000000) scale(0.100000,-0.100000)"
fill="#000000" stroke="none">
<path d="M1720 5007 c-56 -13 -114 -45 -162 -90 -15 -14 -28 -23 -30 -21 -2 1
-41 -32 -86 -75 -51 -49 -82 -86 -82 -99 0 -11 -4 -24 -10 -27 -5 -3 -10 -16
-10 -29 0 -27 -19 -44 -79 -75 -49 -25 -178 -145 -220 -206 -15 -22 -35 -62
-44 -89 -19 -57 -22 -181 -6 -223 6 -15 15 -76 19 -135 7 -100 9 -109 39 -147
18 -22 56 -53 84 -68 48 -26 52 -31 55 -69 2 -31 -5 -57 -30 -105 -30 -59 -33
-73 -36 -174 -1 -60 -5 -119 -7 -130 -2 -11 -36 -41 -80 -69 -41 -28 -75 -53
-75 -58 0 -4 -4 -8 -9 -8 -37 0 -220 -232 -267 -340 -6 -14 -19 -43 -28 -64
-10 -22 -28 -88 -41 -147 -13 -59 -33 -124 -44 -145 -24 -44 -27 -101 -8 -129
8 -11 17 -34 20 -52 6 -31 4 -33 -33 -44 -78 -24 -125 -84 -135 -175 -5 -46
-18 -46 -111 -3 -67 31 -106 43 -155 47 l-66 5 -42 -42 c-40 -40 -41 -43 -41
-106 0 -36 4 -65 8 -65 4 0 22 -19 40 -42 22 -29 32 -53 32 -77 0 -27 12 -51
45 -95 25 -33 50 -77 55 -98 6 -21 26 -52 44 -70 18 -18 44 -49 57 -68 55 -80
76 -103 129 -137 62 -41 70 -50 70 -78 0 -20 -34 -58 -43 -49 -7 7 -90 -89
-122 -141 -114 -189 -122 -216 -84 -284 29 -52 29 -52 439 -262 79 -41 149
-78 155 -82 5 -4 44 -25 85 -46 41 -21 104 -54 140 -73 117 -63 293 -155 380
-199 116 -59 155 -59 275 0 397 193 1110 551 1153 579 61 40 92 91 92 151 0
77 -159 340 -230 380 -22 12 -40 26 -40 31 0 5 17 18 38 29 50 27 91 66 132
126 19 28 55 73 80 101 25 28 51 68 59 90 7 21 23 50 36 64 38 42 53 73 60
122 4 27 15 54 27 65 57 52 73 145 37 219 -15 33 -32 49 -72 68 -65 33 -93 32
-197 -5 -134 -47 -127 -47 -135 0 -4 22 -16 55 -28 73 -26 39 -98 78 -144 78
-20 0 -36 6 -39 14 -3 8 -1 54 5 104 11 99 0 253 -23 331 -13 43 -47 115 -95
199 -62 108 -242 281 -349 334 -49 25 -49 24 -56 176 -4 83 -11 126 -26 159
-12 29 -20 67 -20 104 l0 58 57 38 c88 59 105 99 102 243 0 63 4 140 10 170 6
30 9 74 5 96 -4 30 0 61 16 108 43 126 14 261 -74 345 -33 32 -36 40 -36 90 0
100 -52 171 -153 205 -69 23 -115 27 -177 13z m190 -72 c85 -43 111 -105 74
-176 -8 -17 -14 -32 -12 -33 53 -36 105 -90 126 -130 33 -65 36 -171 7 -226
-19 -36 -23 -80 -28 -360 -1 -63 -4 -125 -5 -137 -2 -26 -68 -103 -87 -103 -7
0 -24 -9 -39 -21 -24 -19 -26 -26 -26 -98 0 -59 5 -91 22 -127 17 -39 22 -73
25 -164 3 -63 9 -126 14 -140 6 -16 39 -42 86 -70 147 -87 336 -306 392 -454
40 -109 52 -263 30 -411 -14 -92 -9 -100 66 -108 98 -10 138 -51 150 -153 4
-27 10 -53 14 -57 5 -5 43 8 84 27 184 85 296 67 321 -50 7 -33 -18 -114 -35
-114 -16 0 -49 -64 -49 -93 0 -33 -12 -58 -52 -109 -15 -20 -35 -56 -44 -80
-8 -23 -32 -61 -53 -83 -21 -22 -52 -61 -69 -87 -40 -59 -100 -110 -167 -142
-29 -14 -56 -30 -60 -36 -15 -24 7 -47 60 -64 41 -13 63 -27 90 -60 19 -24 35
-46 35 -50 0 -4 16 -31 35 -60 90 -135 103 -211 48 -268 -18 -18 -260 -145
-660 -344 -495 -247 -637 -314 -655 -309 -22 7 -363 180 -493 250 -33 18 -125
66 -205 108 -244 126 -422 218 -490 254 -139 73 -141 101 -27 283 85 137 105
158 160 169 32 7 32 7 35 72 l3 65 -47 22 c-67 33 -117 76 -144 125 -13 23
-45 63 -71 88 -38 37 -49 56 -59 101 -10 42 -19 59 -36 67 -41 18 -57 55 -50
111 6 44 4 50 -16 61 -67 34 -90 86 -63 143 20 42 61 61 113 52 51 -8 175 -59
234 -97 26 -17 52 -28 58 -24 5 3 10 42 10 86 0 119 27 159 107 159 21 0 49 3
62 7 21 5 23 10 17 49 -3 23 -17 59 -32 81 -30 44 -28 91 5 127 11 12 22 44
26 76 4 30 19 91 32 135 70 222 211 403 412 526 39 24 73 52 76 61 3 9 8 73
10 142 4 115 7 130 35 185 37 73 44 117 30 170 -9 34 -17 43 -63 65 -92 43
-117 84 -117 190 0 41 -7 103 -16 138 -31 120 -1 230 87 315 24 23 64 63 88
87 28 30 63 53 100 67 63 23 71 31 71 74 1 49 34 109 81 145 24 19 76 62 116
96 64 56 93 71 158 88 38 9 118 -5 165 -29z"/>
<path d="M1695 4857 c-18 -18 -45 -38 -59 -45 -15 -7 -26 -20 -26 -31 0 -13
-9 -21 -29 -26 -47 -10 -83 -57 -89 -115 -5 -53 8 -67 28 -30 16 30 73 27 94
-5 43 -65 -1 -171 -87 -211 -29 -13 -68 -24 -87 -24 -26 0 -31 -3 -22 -12 16
-16 129 5 177 33 45 27 45 10 0 -30 -20 -17 -31 -31 -25 -31 6 0 8 -4 5 -10
-12 -19 12 -10 52 19 54 39 83 88 89 153 3 29 2 48 -3 42 -9 -13 -27 1 -29 24
-1 6 -2 21 -2 32 -1 12 -13 32 -27 45 -19 20 -34 25 -73 25 -26 0 -53 -5 -60
-12 -9 -9 -12 -8 -12 8 0 27 49 72 87 80 40 8 68 -19 78 -75 6 -34 12 -44 38
-55 48 -19 60 -40 52 -82 -6 -34 -5 -36 14 -31 24 6 29 -21 9 -41 -10 -10 -10
-15 2 -22 11 -7 9 -11 -10 -18 -14 -5 -32 -12 -40 -15 -9 -3 -5 -6 10 -6 25
-1 89 32 102 53 5 7 8 5 8 -6 0 -27 -42 -68 -84 -82 -37 -13 -38 -14 -18 -25
16 -9 22 -21 22 -47 0 -28 -5 -36 -26 -44 -14 -6 -30 -7 -36 -4 -7 5 -9 -5 -4
-29 8 -42 -12 -67 -53 -67 -31 0 -52 19 -70 67 -7 18 -23 35 -35 38 -11 3 -44
13 -72 22 -87 28 -173 -8 -198 -82 -22 -64 6 -125 58 -125 16 0 17 3 8 12 -22
22 -12 32 11 10 13 -12 25 -22 28 -22 2 0 3 26 1 59 -3 51 -1 62 19 80 52 48
127 13 115 -53 l-7 -34 30 11 c25 9 40 8 79 -6 60 -22 105 -10 124 34 7 16 20
29 29 29 9 0 27 9 40 19 32 26 33 90 2 123 l-22 24 34 18 c69 38 83 149 31
243 -14 23 -22 43 -18 43 18 0 87 -79 105 -118 17 -39 18 -50 7 -83 -14 -41
-64 -99 -86 -99 -18 0 -18 -3 6 -42 31 -51 26 -92 -14 -123 -40 -30 -51 -63
-34 -100 12 -26 48 -42 67 -30 6 3 11 16 11 29 0 12 12 33 26 47 63 58 69 112
20 167 l-34 37 40 34 c102 86 89 207 -33 285 -70 45 -108 90 -115 138 -7 41 7
55 56 60 l35 3 -32 18 c-20 10 -54 17 -89 17 -50 0 -59 -3 -89 -33z"/>
<path d="M1314 4470 c-18 -12 -37 -33 -43 -48 -7 -15 -26 -36 -44 -45 -37 -20
-82 -84 -92 -129 -11 -47 4 -116 30 -146 19 -21 27 -24 34 -13 6 9 11 10 15 2
15 -24 23 -9 15 27 -31 134 18 222 125 222 43 0 45 11 9 40 l-28 22 28 24 c35
30 79 31 119 3 32 -23 43 -23 25 2 -41 56 -137 75 -193 39z"/>
<path d="M1170 3975 l0 -55 313 -2 c171 0 319 0 327 1 8 1 47 3 85 4 l70 2 3
53 3 52 -400 0 -401 0 0 -55z"/>
<path d="M1224 3891 c3 -4 19 -11 35 -14 28 -6 53 -25 69 -52 6 -12 50 -16
231 -20 l223 -4 29 32 c16 17 46 37 67 43 36 12 37 12 7 13 -16 0 -55 -12 -86
-27 -54 -28 -59 -29 -185 -25 -112 4 -131 7 -144 23 -8 10 -28 24 -43 29 -34
13 -210 15 -203 2z"/>
<path d="M1360 3665 l0 -115 58 6 c78 9 90 17 97 67 10 67 3 100 -24 113 -21
11 -22 12 -5 18 20 6 272 1 279 -6 2 -2 5 -34 6 -71 2 -77 -9 -97 -55 -98 -69
-1 -70 -16 -1 -22 38 -4 72 -3 75 2 3 5 5 56 5 113 l0 103 -217 3 -218 2 0
-115z"/>
<path d="M1575 3704 c17 -44 15 -51 -27 -92 -42 -41 -43 -44 -43 -106 0 -36
-4 -68 -8 -72 -4 -4 -7 5 -7 19 0 30 -14 36 -24 11 -14 -37 -5 -88 21 -122 26
-34 27 -35 35 -13 9 26 28 19 28 -10 0 -16 4 -19 23 -13 97 30 127 120 63 191
-18 21 -36 45 -39 53 -3 9 -6 4 -6 -12 -1 -15 4 -30 9 -33 6 -3 10 -14 10 -23
-1 -14 -4 -13 -20 7 -25 30 -25 69 0 101 28 36 27 105 -2 121 -19 10 -20 9
-13 -7z"/>
<path d="M1355 3519 c-62 -14 -65 -24 -65 -192 0 -137 1 -148 18 -143 130 40
325 47 447 16 43 -11 82 -20 87 -20 4 0 7 28 7 63 -2 54 -3 57 -8 22 -5 -35
-9 -40 -31 -39 -57 3 -190 28 -190 35 0 5 14 16 31 24 43 23 32 27 -21 9 -50
-18 -103 -14 -150 10 -19 9 -30 11 -28 4 4 -12 8 -14 62 -39 l29 -14 -44 -7
c-92 -16 -160 -29 -174 -35 -10 -3 -15 1 -14 13 0 11 20 31 47 49 51 32 61 55
42 91 -13 24 -4 48 32 85 8 8 24 29 37 47 l22 32 -48 -1 c-26 -1 -66 -5 -88
-10z"/>
<path d="M1665 3519 c41 -70 105 -116 105 -75 0 22 29 41 42 28 16 -16 28 -15
28 3 0 25 -45 45 -115 52 -57 5 -67 4 -60 -8z"/>
<path d="M1841 3404 c0 -11 3 -14 6 -6 3 7 2 16 -1 19 -3 4 -6 -2 -5 -13z"/>
<path d="M1445 3174 c-179 -28 -358 -125 -489 -265 -116 -125 -197 -297 -212
-449 -6 -68 -6 -70 16 -70 19 0 21 4 15 28 -4 21 -1 33 14 46 20 18 22 18 47
1 26 -17 28 -17 41 1 7 10 13 25 13 33 0 38 75 207 106 242 8 8 14 20 14 26 0
6 36 44 79 85 74 68 166 125 251 155 66 23 180 36 270 30 50 -3 90 -4 90 -2 0
9 -114 35 -157 35 -26 0 -55 5 -63 10 -13 8 -13 12 3 27 16 16 36 18 160 17
124 -1 153 -5 232 -29 49 -15 101 -35 114 -44 16 -10 22 -11 17 -3 -12 20
-138 80 -218 103 -72 20 -271 34 -343 23z m-151 -100 c29 -29 -17 -80 -49 -54
-15 13 -20 51 -8 63 11 12 41 7 57 -9z m-306 -266 c-2 -27 -8 -34 -29 -36 -29
-3 -41 14 -32 47 4 15 13 21 35 21 27 0 29 -2 26 -32z"/>
<g class="svgSpin">
    <path d="M1550 2963 c-6 -27 -23 -69 -37 -95 l-25 -47 21 -43 c18 -39 21 -62
    21 -186 l0 -143 -35 -34 -34 -35 -249 0 c-229 0 -251 2 -287 20 l-40 20 -60
    -29 c-33 -16 -75 -32 -93 -36 -36 -8 -34 -25 4 -25 26 0 98 -32 126 -57 15
    -14 20 -13 50 8 32 24 38 24 290 27 l257 3 28 -31 c20 -22 40 -33 70 -37 39
    -5 46 -2 78 30 48 48 48 92 2 144 l-33 38 1 147 c2 130 4 150 24 183 21 36 21
    37 2 64 -11 15 -29 57 -41 94 -12 37 -23 67 -25 67 -1 0 -8 -21 -15 -47z"/>
</g>
<path d="M1434 2980 c-110 -22 -237 -93 -326 -183 -58 -59 -142 -196 -136
-224 2 -11 10 0 22 31 24 63 54 108 118 174 97 101 210 161 344 183 41 7 74
17 74 21 0 10 -40 9 -96 -2z"/>
<path d="M1604 2982 c4 -7 17 -12 30 -12 46 0 166 -38 229 -73 67 -37 93 -56
159 -118 21 -20 38 -35 38 -32 0 30 -103 122 -190 171 -85 46 -285 95 -266 64z"/>
<path d="M1620 2914 c0 -11 23 -50 43 -71 l20 -23 -21 -23 c-25 -27 -42 -76
-42 -125 0 -29 5 -34 54 -56 29 -13 72 -41 95 -61 l41 -37 -15 36 c-37 89 42
56 106 -43 33 -51 35 -47 14 24 -14 46 -49 105 -105 178 -21 26 -21 27 -2 27
29 0 93 -51 127 -101 16 -24 31 -46 33 -49 2 -3 8 3 13 12 5 10 17 14 28 11
25 -6 76 -71 101 -125 21 -48 26 -40 9 13 -67 205 -221 353 -417 403 -69 17
-82 19 -82 10z"/>
<path d="M1299 2839 c-26 -26 -24 -45 6 -65 30 -19 52 -13 64 18 18 48 -34 83
-70 47z"/>
<path d="M2070 2738 c0 -13 82 -159 87 -154 7 7 -32 87 -61 125 -14 19 -26 32
-26 29z"/>
<path d="M2321 2664 c0 -11 3 -14 6 -6 3 7 2 16 -1 19 -3 4 -6 -2 -5 -13z"/>
<path d="M1097 2654 c-4 -4 -7 -22 -7 -40 0 -38 26 -52 60 -34 16 9 20 19 18
43 -3 27 -7 32 -33 35 -17 2 -34 0 -38 -4z"/>
<path d="M2336 2593 c4 -15 10 -37 14 -48 14 -38 11 -251 -4 -317 -34 -148
-84 -259 -165 -372 -89 -123 -170 -192 -305 -263 -88 -46 -92 -51 -25 -28 70
25 106 44 188 99 158 108 267 253 316 421 9 33 22 73 28 89 13 35 12 295 -2
339 -5 18 -14 47 -18 66 -5 19 -14 36 -21 39 -9 3 -11 -4 -6 -25z"/>
<path d="M1450 2581 c-65 -35 -114 -93 -134 -158 -12 -37 29 -31 42 6 15 42
78 108 118 123 21 7 34 19 34 30 0 23 -15 22 -60 -1z"/>
<path d="M1620 2586 c0 -8 17 -24 38 -35 130 -67 173 -223 91 -336 -102 -143
-308 -123 -390 37 -20 38 -33 46 -44 28 -10 -16 46 -109 84 -141 72 -59 188
-76 271 -38 157 71 209 269 105 404 -47 62 -155 119 -155 81z"/>
<path d="M953 2530 c-17 -42 -25 -100 -13 -100 5 0 10 15 10 33 0 18 5 38 11
44 6 6 9 19 7 29 -4 16 -6 16 -15 -6z"/>
<path d="M2191 2434 c0 -11 3 -14 6 -6 3 7 2 16 -1 19 -3 4 -6 -2 -5 -13z"/>
<path d="M2201 2360 c-1 -3 -4 -29 -7 -59 -5 -62 -26 -151 -49 -206 -9 -20
-14 -39 -12 -41 3 -4 20 31 47 101 16 39 32 141 27 175 -2 19 -5 33 -6 30z"/>
<path d="M740 2268 c0 -39 30 -161 56 -233 29 -78 111 -204 178 -272 34 -35
65 -63 69 -63 5 0 27 -15 50 -34 76 -62 273 -146 340 -146 19 0 17 3 -12 28
-51 42 -40 62 44 82 l70 17 -60 8 c-141 18 -293 94 -395 196 -44 44 -130 159
-130 173 0 3 -11 29 -24 58 -13 29 -27 71 -31 93 -11 59 -59 106 -122 120 -32
6 -33 6 -33 -27z m155 -223 c0 -27 -3 -30 -30 -30 -21 0 -31 5 -33 18 -6 33 6
49 35 45 24 -3 28 -8 28 -33z m251 -323 c-4 -12 -16 -24 -27 -27 -45 -15 -69
52 -26 72 29 14 62 -14 53 -45z"/>
<path d="M1000 2263 c0 -109 104 -290 213 -373 67 -50 165 -96 236 -111 115
-24 284 1 393 57 38 20 35 26 -4 9 -18 -7 -67 -16 -108 -20 -70 -6 -77 -5
-108 18 l-33 25 28 10 c15 5 39 19 53 30 l25 21 -61 1 c-48 0 -68 5 -89 22
l-28 22 21 16 c16 13 18 20 9 29 -8 8 -7 11 6 11 36 0 15 18 -28 23 -93 13
-176 74 -218 161 -15 30 -27 60 -27 65 0 7 -48 11 -140 11 l-140 0 0 -27z"/>
<path d="M930 2256 c0 -9 5 -16 10 -16 6 0 10 4 10 9 0 6 -4 13 -10 16 -5 3
-10 -1 -10 -9z"/>
<path d="M936 2215 c4 -8 8 -15 10 -15 2 0 4 7 4 15 0 8 -4 15 -10 15 -5 0 -7
-7 -4 -15z"/>
<path d="M951 2175 c0 -11 4 -27 9 -35 9 -13 10 -13 9 0 0 8 -4 24 -9 35 l-9
20 0 -20z"/>
<path d="M970 2118 c0 -39 90 -175 162 -244 203 -196 524 -229 766 -80 31 20
68 46 82 59 52 48 120 127 120 139 0 6 -8 2 -17 -10 -104 -133 -241 -221 -397
-257 -46 -10 -196 -7 -256 5 -82 17 -207 82 -273 140 -50 45 -147 166 -147
184 0 3 -9 20 -20 38 -11 18 -20 30 -20 26z"/>
<path d="M562 1978 l3 -73 55 -5 c42 -4 56 -9 58 -22 3 -13 -3 -18 -20 -18
-13 0 -40 -14 -61 -31 -32 -26 -38 -37 -35 -63 3 -29 6 -31 42 -33 135 -5 222
-50 294 -151 29 -42 52 -115 52 -169 l0 -43 153 -2 c469 -5 459 -5 500 21 20
12 37 26 37 31 0 4 -44 8 -98 8 -281 4 -533 135 -709 369 -50 68 -113 184
-126 233 -5 18 -13 20 -77 20 l-71 0 3 -72z"/>
<path d="M2391 1948 c-58 -118 -152 -241 -238 -310 -32 -26 -69 -56 -83 -68
l-25 -21 32 15 c17 9 64 42 105 74 104 83 188 186 252 309 30 57 40 63 97 63
32 0 39 3 39 20 0 18 -7 20 -64 20 l-64 0 -51 -102z"/>
<path d="M196 1886 c111 -64 158 -116 194 -209 20 -52 44 -95 67 -119 l36 -36
-44 5 c-43 5 -43 5 -22 -12 13 -9 23 -26 23 -38 0 -29 52 -61 85 -53 25 6 75
-11 75 -26 0 -4 -21 -8 -46 -8 -34 0 -57 7 -88 28 -70 47 -73 49 -56 26 76
-102 136 -121 320 -99 41 4 69 10 62 13 -6 2 -12 8 -12 14 0 5 20 -2 45 -16
26 -15 45 -22 45 -15 0 23 -53 109 -72 115 -10 3 -16 9 -13 14 3 5 -4 19 -16
32 -11 13 -31 39 -43 58 -19 31 -28 36 -81 44 -110 16 -138 26 -177 67 -21 22
-38 49 -38 59 0 33 -73 96 -162 139 -112 54 -165 66 -82 17z"/>
<path d="M2908 1896 c-129 -53 -184 -97 -224 -181 -30 -64 -73 -90 -175 -106
-75 -11 -119 -30 -119 -51 0 -6 -11 -26 -25 -44 -14 -19 -26 -37 -27 -41 -1
-5 -13 -17 -26 -27 -24 -19 -61 -88 -62 -114 0 -9 11 -4 31 12 30 25 66 36 54
16 -4 -6 6 -10 21 -10 15 0 54 -5 86 -12 99 -21 218 19 263 89 23 34 13 39
-21 11 -16 -13 -42 -29 -57 -36 -33 -14 -97 -16 -97 -3 0 13 56 30 79 24 29
-8 71 22 71 51 0 13 10 31 23 40 21 16 21 17 -22 11 l-45 -6 27 21 c14 11 40
51 57 88 66 141 76 156 137 202 33 25 78 55 99 67 51 29 24 29 -48 -1z"/>
<path d="M2450 1870 c0 -6 27 -10 60 -10 33 0 60 4 60 10 0 6 -27 10 -60 10
-33 0 -60 -4 -60 -10z"/>
<path d="M2445 1832 c-6 -4 -16 -19 -24 -33 -7 -15 -35 -43 -62 -64 -49 -37
-116 -112 -138 -152 -20 -39 -12 -37 18 4 63 87 170 143 276 143 l55 0 0 50 0
50 -44 0 c-24 0 -50 2 -58 5 -7 3 -18 1 -23 -3z"/>
<path d="M230 1735 c0 -2 13 -17 29 -33 16 -16 33 -45 36 -65 7 -38 31 -50 41
-22 16 40 -23 100 -73 114 -18 5 -33 8 -33 6z"/>
<path d="M2865 1726 c-42 -19 -65 -47 -72 -92 -3 -22 -12 -51 -19 -66 -19 -38
-18 -40 15 -24 30 16 41 34 41 67 0 28 36 96 57 108 28 15 11 21 -22 7z"/>
<path d="M335 1560 c-3 -6 2 -13 12 -17 10 -3 22 -8 26 -11 5 -2 4 5 -2 17
-13 23 -26 27 -36 11z"/>
<path d="M1221 1343 c-243 -3 -272 -5 -267 -19 3 -9 6 -18 6 -20 0 -2 121 -4
268 -4 221 0 272 3 288 15 16 13 17 16 4 25 -8 5 -17 9 -20 8 -3 -2 -128 -4
-279 -5z"/>
<path d="M1910 1329 c129 -3 238 -7 243 -8 4 0 7 -8 7 -16 0 -8 5 -15 10 -15
6 0 10 11 10 25 l0 25 -252 -2 -253 -2 235 -7z"/>
<path d="M630 1180 c0 -39 1 -40 35 -40 19 0 35 4 35 10 0 12 55 41 64 33 3
-4 6 -1 6 6 0 8 6 11 17 7 9 -4 20 -1 25 6 6 10 12 9 23 -6 16 -21 20 -38 8
-33 -5 1 -10 -2 -13 -8 -3 -7 113 -11 335 -13 l340 -2 50 27 50 28 315 -3
c257 -2 323 0 355 12 36 13 -52 15 -802 15 l-843 1 0 -40z"/>
<path d="M2343 1185 c-11 -8 -24 -26 -27 -40 l-6 -25 -370 0 c-240 0 -370 -4
-370 -10 0 -6 118 -10 333 -10 268 0 344 -3 392 -16 105 -27 114 -28 135 -9
29 26 27 89 -2 109 -28 20 -57 20 -85 1z"/>
<path d="M630 1110 c0 -5 11 -10 25 -10 14 0 34 -9 46 -21 28 -28 76 -22 98
11 l16 25 -27 -17 c-36 -23 -60 -23 -76 2 -8 14 -23 20 -47 20 -19 0 -35 -4
-35 -10z"/>
<path d="M840 1111 c0 -13 607 -15 615 -1 4 7 -93 10 -304 10 -183 0 -311 -4
-311 -9z"/>
<path d="M425 894 c-68 -104 -80 -134 -55 -134 4 0 37 -16 72 -36 108 -62 278
-145 291 -143 20 3 47 -12 47 -27 0 -21 38 -17 50 6 8 15 8 20 -1 18 -6 -2
-16 5 -22 14 -9 13 -6 28 10 65 11 26 29 68 39 93 9 25 31 75 48 113 l31 67
40 -2 c36 -3 40 -5 38 -28 -3 -23 -32 -109 -86 -250 -11 -30 -29 -62 -39 -72
-16 -14 -16 -20 -5 -47 7 -17 29 -43 48 -57 33 -25 305 -164 318 -162 21 3 71
-17 71 -28 0 -8 4 -14 9 -14 6 0 29 -12 53 -27 24 -16 52 -34 63 -41 44 -28
100 -51 108 -43 4 4 1 25 -6 47 -10 28 -24 45 -50 59 -20 11 -39 25 -41 32 -4
10 16 197 54 507 7 56 15 84 28 97 20 18 37 82 27 99 -4 7 -195 10 -536 10
l-530 -1 -74 -115z m187 54 c15 1 29 -2 32 -6 5 -9 -38 -99 -78 -161 -25 -39
-29 -42 -43 -28 -14 14 -14 20 6 61 38 82 22 91 -27 16 -18 -27 -37 -50 -42
-50 -23 0 -18 25 14 80 20 34 36 65 36 70 0 15 34 30 55 24 11 -4 32 -6 47 -6z
m138 -17 c1 -3 -25 -57 -57 -119 -58 -112 -74 -127 -97 -90 -8 13 0 36 38 110
27 51 53 98 58 104 8 11 58 7 58 -5z m114 1 c7 -12 -18 -82 -71 -191 -25 -53
-46 -97 -48 -99 -4 -4 -65 27 -65 33 0 6 59 135 93 202 27 54 36 63 59 63 15
0 29 -4 32 -8z m334 -20 c10 -7 5 -37 -23 -143 -85 -324 -76 -309 -152 -267
-33 17 -48 32 -47 44 2 24 52 194 62 214 5 8 19 48 31 88 l24 72 46 0 c25 0
52 -4 59 -8z m250 -52 c4 -34 -14 -163 -43 -320 -8 -41 -17 -101 -21 -133 -3
-31 -11 -60 -16 -63 -5 -4 -40 7 -76 24 -37 16 -75 32 -86 36 -20 7 -20 4 7
111 9 33 32 130 52 215 21 85 39 159 42 163 3 4 35 7 71 5 l67 -3 3 -35z"/>
<path d="M1690 1001 c0 -18 56 -21 482 -21 l436 0 24 -29 c27 -33 77 -114 95
-153 l12 -27 -132 -72 c-73 -39 -155 -85 -184 -102 -96 -56 -46 -40 87 30 72
37 162 83 198 102 84 43 79 38 62 64 -7 12 -38 63 -68 112 -30 50 -60 93 -66
97 -16 10 -946 10 -946 -1z"/>
<path d="M2678 805 c3 -19 8 -23 15 -16 8 8 7 16 -5 27 -14 14 -15 14 -10 -11z"/>
<path d="M2080 768 c0 -9 5 -29 10 -44 6 -15 18 -63 27 -107 l16 -80 -29 -24
c-16 -12 -25 -23 -21 -23 9 0 87 39 87 44 0 1 -10 29 -21 62 -12 32 -32 88
-45 124 -13 36 -23 57 -24 48z"/>
<path d="M2400 777 c0 -4 7 -24 15 -44 8 -19 15 -45 15 -56 0 -16 3 -18 11
-10 9 9 9 20 -1 45 -15 36 -40 77 -40 65z"/>
<path d="M1861 745 c-1 -11 8 -78 19 -149 11 -71 20 -136 20 -146 0 -9 -21
-32 -46 -50 -25 -19 -41 -36 -35 -38 11 -4 108 46 117 60 5 8 -10 79 -61 288
-7 30 -14 46 -14 35z"/>
<path d="M2536 725 c-3 -8 -1 -15 4 -15 6 0 10 7 10 15 0 8 -2 15 -4 15 -2 0
-6 -7 -10 -15z"/>
<path d="M2287 695 c3 -16 10 -40 14 -53 7 -17 5 -28 -6 -38 -21 -22 -19 -25
10 -12 30 14 30 19 0 83 -18 36 -22 42 -18 20z"/>
<path d="M1651 515 c0 -16 4 -70 9 -119 6 -64 6 -94 -2 -103 -6 -8 -9 -16 -6
-18 10 -11 31 27 30 53 -2 51 -30 217 -31 187z"/>
</g>
</svg>
